<svg width="45" height="34" viewBox="0 0 45 34" fill="none" xmlns="http://www.w3.org/2000/svg">
<path d="M1 16.1579C0.447715 16.1579 0 16.6056 0 17.1579C0 17.7102 0.447715 18.1579 1 18.1579V16.1579ZM30 17.1579L30.6864 17.8852C30.8932 17.69 31.0071 17.416 30.9997 17.1317C30.9922 16.8475 30.8641 16.5798 30.6474 16.3957L30 17.1579ZM22.0636 23.2727C21.662 23.6518 21.6437 24.2847 22.0227 24.6864C22.4018 25.088 23.0347 25.1063 23.4364 24.7273L22.0636 23.2727ZM23.3974 10.2378C22.9764 9.88029 22.3454 9.93169 21.9878 10.3526C21.6303 10.7736 21.6817 11.4046 22.1026 11.7622L23.3974 10.2378ZM14 2H42V0H14V2ZM43 3V31H45V3H43ZM42 32H14V34H42V32ZM13 31V3H11V31H13ZM14 32C13.4477 32 13 31.5523 13 31H11C11 32.6569 12.3431 34 14 34V32ZM43 31C43 31.5523 42.5523 32 42 32V34C43.6569 34 45 32.6569 45 31H43ZM42 2C42.5523 2 43 2.44772 43 3H45C45 1.34315 43.6569 0 42 0V2ZM14 0C12.3431 0 11 1.34315 11 3H13C13 2.44772 13.4477 2 14 2V0ZM1 18.1579H30V16.1579H1V18.1579ZM29.3136 16.4306L22.0636 23.2727L23.4364 24.7273L30.6864 17.8852L29.3136 16.4306ZM30.6474 16.3957L23.3974 10.2378L22.1026 11.7622L29.3526 17.9201L30.6474 16.3957Z" fill="white"/>
</svg>
